<?xml version="1.0" encoding="UTF-8" standalone="no"?>
<!-- Created with Inkscape (http://www.inkscape.org/) -->

<svg
   xmlns:dc="http://purl.org/dc/elements/1.1/"
   xmlns:cc="http://creativecommons.org/ns#"
   xmlns:rdf="http://www.w3.org/1999/02/22-rdf-syntax-ns#"
   xmlns:svg="http://www.w3.org/2000/svg"
   xmlns="http://www.w3.org/2000/svg"
   xmlns:sodipodi="http://sodipodi.sourceforge.net/DTD/sodipodi-0.dtd"
   xmlns:inkscape="http://www.inkscape.org/namespaces/inkscape"
   width="64px"
   height="64px"
   id="svg3765"
   version="1.1"
   inkscape:version="0.48.4 r9939"
   sodipodi:docname="kdenlive.svg">
  <defs
     id="defs3767" />
  <sodipodi:namedview
     id="base"
     pagecolor="#ffffff"
     bordercolor="#666666"
     borderopacity="1.0"
     inkscape:pageopacity="0.0"
     inkscape:pageshadow="2"
     inkscape:zoom="5.5"
     inkscape:cx="41"
     inkscape:cy="43.99719"
     inkscape:current-layer="layer1"
     showgrid="true"
     inkscape:document-units="px"
     inkscape:grid-bbox="true"
     inkscape:window-width="1215"
     inkscape:window-height="1000"
     inkscape:window-x="65"
     inkscape:window-y="24"
     inkscape:window-maximized="1" />
  <metadata
     id="metadata3770">
    <rdf:RDF>
      <cc:Work
         rdf:about="">
        <dc:format>image/svg+xml</dc:format>
        <dc:type
           rdf:resource="http://purl.org/dc/dcmitype/StillImage" />
        <dc:title />
      </cc:Work>
    </rdf:RDF>
  </metadata>
  <g
     id="layer1"
     inkscape:label="Layer 1"
     inkscape:groupmode="layer">
    <rect
       style="fill:#550044;fill-opacity:1;stroke:#ddafe9;stroke-width:3;stroke-miterlimit:4;stroke-opacity:1;stroke-dasharray:none"
       id="rect3773"
       width="61"
       height="61"
       x="1.5"
       y="1.5" />
    <g
       style="font-size:58px;font-style:normal;font-weight:bold;line-height:125%;letter-spacing:0px;word-spacing:0px;fill:#ddafe9;fill-opacity:1;stroke:none;font-family:Sans;-inkscape-font-specification:Myriad Pro Bold Italic"
       id="text4283">
      <path
         d="m 10.286703,51.835999 6.148,0 0,-13.92 1.972,-3.48 6.728,17.4 6.786,0 -9.338,-22.214 9.106,-16.878 -6.786,0 -6.148,13.108 c -0.753999,1.623998 -1.392001,3.306001 -2.146,4.93 l -0.174,0 0,-18.038 -6.148,0 0,39.092"
         style="font-variant:normal;font-stretch:normal;fill:#ddafe9;font-family:Myriad Pro;-inkscape-font-specification:Myriad Pro Bold Italic"
         id="path3172" />
      <path
         d="m 47.333297,11.699999 0,14.5 -0.116,0 c -0.927999,-1.971998 -2.610002,-3.074 -4.93,-3.074 -4.581995,0 -8.874,4.756009 -8.874,14.674 0,8.525991 3.074005,14.5 8.584,14.5 2.725997,0 4.872001,-1.798002 5.858,-3.828 l 0.174,0 0.348,3.364 5.336,0 c -0.116,-2.145998 -0.232,-5.336003 -0.232,-7.656 l 0,-32.48 -6.148,0 m 0,30.16 c 0,0.695999 -0.058,1.334 -0.232,1.856 -0.753999,2.841997 -2.204001,3.48 -3.364,3.48 -2.609997,0 -4.118,-3.654006 -4.118,-9.338 0,-5.045995 1.102003,-9.454 4.234,-9.454 1.855998,0 3.132,1.972002 3.364,4.234 0.116,0.579999 0.116,1.218 0.116,1.74 l 0,7.482"
         style="font-variant:normal;font-stretch:normal;fill:#ddafe9;font-family:Myriad Pro;-inkscape-font-specification:Myriad Pro Bold Italic"
         id="path3174" />
    </g>
  </g>
</svg>
