<?xml version="1.0" encoding="UTF-8" standalone="no"?>
<!-- Created with Inkscape (http://www.inkscape.org/) -->

<svg
   xmlns:osb="http://www.openswatchbook.org/uri/2009/osb"
   xmlns:dc="http://purl.org/dc/elements/1.1/"
   xmlns:cc="http://creativecommons.org/ns#"
   xmlns:rdf="http://www.w3.org/1999/02/22-rdf-syntax-ns#"
   xmlns:svg="http://www.w3.org/2000/svg"
   xmlns="http://www.w3.org/2000/svg"
   xmlns:sodipodi="http://sodipodi.sourceforge.net/DTD/sodipodi-0.dtd"
   xmlns:inkscape="http://www.inkscape.org/namespaces/inkscape"
   width="64px"
   height="64px"
   id="svg3765"
   version="1.1"
   inkscape:version="0.48.4 r9939"
   sodipodi:docname="krita.svg">
  <defs
     id="defs3767">
    <linearGradient
       id="linearGradient5846"
       osb:paint="solid">
      <stop
         style="stop-color:#80b3ff;stop-opacity:1;"
         offset="0"
         id="stop5848" />
    </linearGradient>
    <linearGradient
       id="linearGradient4404">
      <stop
         style="stop-color:#80b3ff;stop-opacity:1;"
         offset="0"
         id="stop4406" />
      <stop
         style="stop-color:#80b3ff;stop-opacity:0;"
         offset="1"
         id="stop4408" />
    </linearGradient>
  </defs>
  <sodipodi:namedview
     id="base"
     pagecolor="#ffffff"
     bordercolor="#666666"
     borderopacity="1.0"
     inkscape:pageopacity="0.0"
     inkscape:pageshadow="2"
     inkscape:zoom="5.5"
     inkscape:cx="36.744319"
     inkscape:cy="22.179008"
     inkscape:current-layer="layer1"
     showgrid="true"
     inkscape:document-units="px"
     inkscape:grid-bbox="true"
     inkscape:window-width="1215"
     inkscape:window-height="1000"
     inkscape:window-x="65"
     inkscape:window-y="24"
     inkscape:window-maximized="1" />
  <metadata
     id="metadata3770">
    <rdf:RDF>
      <cc:Work
         rdf:about="">
        <dc:format>image/svg+xml</dc:format>
        <dc:type
           rdf:resource="http://purl.org/dc/dcmitype/StillImage" />
        <dc:title />
      </cc:Work>
    </rdf:RDF>
  </metadata>
  <g
     id="layer1"
     inkscape:label="Layer 1"
     inkscape:groupmode="layer">
    <rect
       style="fill:#aaeeff;fill-opacity:1;stroke:#00aad4;stroke-width:3;stroke-miterlimit:4;stroke-opacity:1;stroke-dasharray:none"
       id="rect3773"
       width="61"
       height="61"
       x="1.5"
       y="1.5" />
    <g
       style="font-size:144px;font-style:normal;font-weight:bold;line-height:125%;letter-spacing:0px;word-spacing:0px;fill:#00aad4;fill-opacity:1;stroke:none;font-family:Sans;-inkscape-font-specification:Myriad Pro Bold Italic"
       id="text4283">
      <path
         d="m 13.554477,52.556999 6.466,0 0,-14.64 2.074,-3.66 7.076,18.3 7.137,0 -9.821,-23.363 9.577,-17.751 -7.137,0 -6.466,13.786 c -0.792999,1.707998 -1.464001,3.477002 -2.257,5.185 l -0.183,0 0,-18.971 -6.466,0 0,41.114"
         style="font-size:61px;font-variant:normal;font-stretch:normal;fill:#00aad4;font-family:Myriad Pro;-inkscape-font-specification:Myriad Pro Bold Italic"
         id="path3236" />
      <path
         d="m 39.631977,52.556999 6.527,0 0,-15.677 c 0,-1.158999 0.061,-2.135001 0.244,-2.867 0.670999,-3.232997 2.989002,-5.124 5.246,-5.124 0.548999,0 0.976,0 1.342,0.122 l 0,-6.527 c -0.366,-0.061 -0.732001,-0.122 -1.342,-0.122 -2.439998,0 -4.880001,1.952003 -6.039,5.002 l -0.183,0 -0.366,-4.514 -5.673,0 c 0.061,2.561998 0.244,5.612003 0.244,8.357 l 0,21.35"
         style="font-size:61px;font-variant:normal;font-stretch:normal;fill:#00aad4;font-family:Myriad Pro;-inkscape-font-specification:Myriad Pro Bold Italic"
         id="path3238" />
    </g>
  </g>
</svg>
