<?xml version="1.0" encoding="UTF-8" standalone="no"?>
<!-- Created with Inkscape (http://www.inkscape.org/) -->

<svg
   xmlns:dc="http://purl.org/dc/elements/1.1/"
   xmlns:cc="http://creativecommons.org/ns#"
   xmlns:rdf="http://www.w3.org/1999/02/22-rdf-syntax-ns#"
   xmlns:svg="http://www.w3.org/2000/svg"
   xmlns="http://www.w3.org/2000/svg"
   xmlns:sodipodi="http://sodipodi.sourceforge.net/DTD/sodipodi-0.dtd"
   xmlns:inkscape="http://www.inkscape.org/namespaces/inkscape"
   width="64px"
   height="64px"
   id="svg3765"
   version="1.1"
   inkscape:version="0.48.4 r9939"
   sodipodi:docname="scribus.svg">
  <defs
     id="defs3767" />
  <sodipodi:namedview
     id="base"
     pagecolor="#ffffff"
     bordercolor="#666666"
     borderopacity="1.0"
     inkscape:pageopacity="0.0"
     inkscape:pageshadow="2"
     inkscape:zoom="6.468254"
     inkscape:cx="31.5"
     inkscape:cy="32.5"
     inkscape:current-layer="layer1"
     showgrid="true"
     inkscape:document-units="px"
     inkscape:grid-bbox="true"
     inkscape:window-width="1215"
     inkscape:window-height="1000"
     inkscape:window-x="65"
     inkscape:window-y="24"
     inkscape:window-maximized="1" />
  <metadata
     id="metadata3770">
    <rdf:RDF>
      <cc:Work
         rdf:about="">
        <dc:format>image/svg+xml</dc:format>
        <dc:type
           rdf:resource="http://purl.org/dc/dcmitype/StillImage" />
        <dc:title />
      </cc:Work>
    </rdf:RDF>
  </metadata>
  <g
     id="layer1"
     inkscape:label="Layer 1"
     inkscape:groupmode="layer">
    <rect
       style="fill:#554400;fill-opacity:1;stroke:#ffdd55;stroke-width:3;stroke-miterlimit:4;stroke-opacity:1;stroke-dasharray:none"
       id="rect3773"
       width="61"
       height="61"
       x="1.5"
       y="1.5" />
    <g
       style="font-size:50px;font-style:normal;font-weight:bold;line-height:125%;letter-spacing:0px;word-spacing:0px;fill:#ffdd55;fill-opacity:1;stroke:none;font-family:Sans;-inkscape-font-specification:Myriad Pro Bold Italic"
       id="text4283">
      <path
         d="m 11.543078,51.214999 c 1.280999,0.853999 4.331003,1.708 7.442,1.708 7.380993,0 12.627,-4.697007 12.627,-12.078 0,-4.391995 -2.074005,-8.357003 -7.259,-11.773 -4.208996,-2.683997 -5.856,-4.148003 -5.856,-7.32 0,-2.500997 1.769004,-5.002 5.49,-5.002 2.195998,0 3.965001,0.671001 5.063,1.403 l 1.22,-5.612 c -1.097999,-0.670999 -3.538003,-1.464 -6.161,-1.464 -7.685992,0 -12.017,5.063007 -12.017,11.468 0,4.452996 3.172005,8.540003 7.747,11.468 3.354997,2.317998 5.368,4.209004 5.368,7.503 0,3.354997 -2.196004,5.734 -6.222,5.734 -2.134998,0 -4.819002,-0.732001 -6.344,-1.647 l -1.098,5.612"
         style="font-size:61px;font-variant:normal;font-stretch:normal;fill:#ffdd55;font-family:Myriad Pro;-inkscape-font-specification:Myriad Pro Bold Italic"
         id="path3344" />
      <path
         d="m 51.480922,46.883999 c -0.914999,0.488 -1.952001,0.671 -3.172,0.671 -3.964996,0 -6.405,-3.660006 -6.405,-9.76 0,-5.428994 2.196004,-10.004 6.405,-10.004 1.463998,0 2.501,0.427 3.172,0.671 l 0.976,-5.185 c -0.792999,-0.426999 -2.501002,-0.854 -4.27,-0.854 -7.868992,0 -12.81,6.649009 -12.81,15.494 0,9.75999 4.697007,15.006 11.773,15.006 2.195998,0 4.087001,-0.488 5.002,-0.976 l -0.671,-5.063"
         style="font-size:61px;font-variant:normal;font-stretch:normal;fill:#ffdd55;font-family:Myriad Pro;-inkscape-font-specification:Myriad Pro Bold Italic"
         id="path3346" />
    </g>
  </g>
</svg>
